<?xml version="1.0" standalone="no"?><!DOCTYPE svg PUBLIC "-//W3C//DTD SVG 1.1//EN" "http://www.w3.org/Graphics/SVG/1.1/DTD/svg11.dtd"><svg class="icon" width="200px" height="200.00px" viewBox="0 0 1024 1024" version="1.1" xmlns="http://www.w3.org/2000/svg"><path d="M368 1006.4c-17.6 0-32-14.4-32-32v-48h64v80h-32zM656 1006.4c17.6 0 32-14.4 32-32v-48h-64v80h32z" fill="#FAEDD6" /><path d="M400 958.4h224.8v48H400z" fill="#FA004B" /><path d="M368 927.2h-48v-312c0-29.6 24.8-54.4 54.4-54.4h276c30.4 0 54.4 24 54.4 54.4v312h-80v32H400v-32h-32z" fill="#36C9A3" /><path d="M604 30.4c-20-20-52.8-20-73.6 0l-18.4 18.4-18.4-18.4c-20-20-52.8-20-73.6 0-20 20-20 52.8 0 72.8l18.4 18.4 73.6 72.8 73.6-72.8 18.4-18.4c20-20 20-52.8 0-72.8zM860 269.6c-20-20-52.8-20-73.6 0L768.8 288l-18.4-18.4c-20-20-52.8-20-73.6 0-20 20-20 52.8 0 72.8l18.4 18.4 73.6 72.8 73.6-72.8 18.4-18.4c20-20 20-52.8-0.8-72.8zM347.2 269.6c-20-20-52.8-20-73.6 0L255.2 288l-18.4-18.4c-20-20-52.8-20-73.6 0s-20 52.8 0 72.8l18.4 18.4 73.6 72.8 73.6-72.8 18.4-18.4c20-20 20-52.8 0-72.8z" fill="#FA004B" /><path d="M512 512.8c-35.2 0-64-28.8-64-64V321.6c0-35.2 28.8-64 64-64s64 28.8 64 64v127.2c0 35.2-28.8 64-64 64z" fill="#FAEDD6" /><path d="M512 528.8c-44 0-80-35.2-80-79.2v-128c0-44 36-79.2 80-79.2s80 35.2 80 79.2v127.2c0 44-36 80-80 80z m0-255.2c-26.4 0-48.8 21.6-48.8 48v127.2c0 26.4 21.6 48 48.8 48s48.8-21.6 48.8-48V321.6c0-26.4-22.4-48-48.8-48zM720 614.4c0-38.4-31.2-69.6-70.4-69.6H374.4c-38.4 0-70.4 31.2-70.4 69.6v328h16v32c0 26.4 21.6 47.2 48 47.2v-31.2c-8.8 0-16.8-7.2-16.8-16v-32h16.8v-31.2h-32.8V614.4c0-21.6 17.6-38.4 39.2-38.4h276c21.6 0 39.2 17.6 39.2 38.4v296.8h-32.8v31.2h16.8v32c0 8.8-7.2 16-16.8 16v31.2c26.4 0 48-21.6 48-47.2v-32h16l-0.8-328z" fill="#232323" /><path d="M494.4 590.4h33.6v31.2h-33.6z" fill="#FA004B" /><path d="M494.4 640h31.2v205.6h-31.2z" fill="#FFFFFF" /><path d="M512 216.8L409.6 114.4c-26.4-26.4-26.4-68.8 0-94.4 26.4-26.4 68.8-26.4 95.2 0l7.2 7.2 7.2-7.2C532 7.2 548.8 0 567.2 0s35.2 7.2 48 20c26.4 26.4 26.4 68.8 0 94.4L512 216.8zM456.8 31.2c-9.6 0-18.4 3.2-25.6 10.4-14.4 14.4-14.4 36.8 0 50.4l80.8 80 80.8-80c14.4-14.4 14.4-36.8 0-50.4-7.2-6.4-16-10.4-25.6-10.4-9.6 0-18.4 4-25.6 10.4l-29.6 28.8-29.6-28.8c-7.2-7.2-16-10.4-25.6-10.4zM768.8 455.2L665.6 353.6c-26.4-26.4-26.4-68.8 0-94.4 26.4-26.4 68.8-26.4 95.2 0l7.2 7.2 7.2-7.2c26.4-26.4 68.8-26.4 95.2 0 26.4 26.4 26.4 68.8 0 94.4L768.8 455.2z m-55.2-185.6c-9.6 0-18.4 3.2-25.6 10.4-14.4 14.4-14.4 36.8 0 50.4l80.8 80 80.8-80c14.4-14.4 14.4-36.8 0-50.4-14.4-14.4-36.8-13.6-51.2 0l-29.6 29.6-29.6-29.6c-7.2-6.4-16-10.4-25.6-10.4zM255.2 455.2L152.8 353.6c-26.4-26.4-26.4-68.8 0-94.4 12.8-12.8 29.6-20 48-20s35.2 7.2 48 20l7.2 7.2 7.2-7.2c12.8-12.8 29.6-20 48-20s35.2 7.2 48 20c26.4 26.4 26.4 68.8 0 94.4l-104 101.6zM200.8 269.6c-9.6 0-18.4 4-25.6 10.4-14.4 14.4-14.4 36.8 0 50.4l80.8 80 80.8-80c14.4-14.4 14.4-36.8 0-50.4-7.2-6.4-16-10.4-25.6-10.4s-18.4 4-25.6 10.4l-29.6 29.6-29.6-29.6c-7.2-6.4-16-10.4-25.6-10.4z" fill="#232323" /><path d="M494.4 940.8h33.6v31.2h-33.6z" fill="#FFFFFF" /><path d="M607.2 671.2v269.6h-62.4v31.2h62.4v16.8h-192v-16.8h64.8v-31.2h-64.8V671.2h-48v31.2h16.8v317.6h254.4V702.4h16.8v-31.2z" fill="#232323" /></svg>