<?xml version="1.0" standalone="no"?><!DOCTYPE svg PUBLIC "-//W3C//DTD SVG 1.1//EN" "http://www.w3.org/Graphics/SVG/1.1/DTD/svg11.dtd"><svg t="1629120245222" class="icon" viewBox="0 0 1024 1024" version="1.1" xmlns="http://www.w3.org/2000/svg" p-id="6839" xmlns:xlink="http://www.w3.org/1999/xlink" width="200" height="200"><defs><style type="text/css"></style></defs><path d="M314.115587 55.678991a157.373148 157.373148 0 0 0-222.331971-0.032 157.341148 157.341148 0 0 0 0 222.331971L307.203712 493.431057 313.891591 479.9913h44.223198l6.751878 13.503755 97.150239-97.118239-37.247325-37.247325a92.350326 92.350326 0 0 1 0-130.493635 92.414325 92.414325 0 0 1 130.493635 0l37.50332 37.53532 10.591808-17.343686a157.437146 157.437146 0 0 0-22.975583-193.180499 157.341148 157.341148 0 0 0-222.331971 0l-21.983601 21.951603-21.951602-21.951603z" fill="#F83B57" p-id="6840"></path><path d="M323.651414 528.118428c-2.559954 4.575917-6.143889 12.15978-9.727824 21.951602-6.399884 17.439684-10.111817 35.071364-9.631825 52.095056 0.57599 20.99162 7.551863 39.423285 22.207597 53.631028 30.87944 29.887458 33.599391 62.078875 0.127998 93.7583-40.191272 38.04731-43.03922 94.270291-0.159997 135.965536 7.583863 7.359867 11.455792 16.351704 12.255778 27.263506 0.927983 11.999783-1.919965 25.599536-7.359867 39.263288-2.847948 7.263868-5.695897 12.799768-7.423865 15.679716a15.99971 15.99971 0 0 0 27.391503 16.5437c2.559954-4.287922 6.207887-11.327795 9.823822-20.447629 7.039872-17.759678 10.815804-35.903349 9.471828-53.439032a72.414687 72.414687 0 0 0-21.855603-47.807133c-29.343468-28.543483-27.551501-63.838843-0.127998-89.790373 47.679136-45.119182 43.263216-98.238219 0.127998-139.997462-8.159852-7.903857-12.15978-18.367667-12.479774-31.48743-0.319994-12.383776 2.559954-26.271524 7.679861-40.223271 2.943947-8.063854 5.855894-14.207742 7.67986-17.471683a15.99971 15.99971 0 0 0-27.999492-15.487719z" fill="#4FCAC3" p-id="6841"></path><path d="M380.482384 447.99188H291.523996l-23.999565 95.99826h136.957518z" fill="#F83B57" p-id="6842"></path><path d="M577.886806 206.012266a124.413745 124.413745 0 0 0-175.772814 0 124.349746 124.349746 0 0 0 0 175.740815l162.237059 162.237059h55.422996l162.237059-162.237059a124.413745 124.413745 0 0 0 0-175.740815 124.349746 124.349746 0 0 0-175.740815 0l-14.207742 14.207743-14.175743-14.207743z" fill="#FF9DAC" p-id="6843"></path><path d="M582.398724 588.469334a77.598594 77.598594 0 0 0-11.103799 14.463738c-15.99971 26.175526-16.639698 55.838988 8.639844 82.270509l2.559953 2.559953c30.87944 29.919458 33.599391 62.142874 0.127998 93.7903-40.191272 38.04731-43.03922 94.270291-0.159997 135.965536 7.583863 7.359867 11.455792 16.351704 12.255778 27.263506 0.927983 11.999783-1.919965 25.599536-7.359867 39.263288-2.847948 7.263868-5.695897 12.799768-7.423865 15.679716a15.99971 15.99971 0 0 0 27.391503 16.5437c2.559954-4.287922 6.207887-11.327795 9.823822-20.447629 7.039872-17.759678 10.815804-35.903349 9.471828-53.439032a72.414687 72.414687 0 0 0-21.855603-47.807133c-29.343468-28.543483-27.551501-63.838843-0.127998-89.790373 47.679136-45.119182 43.263216-98.238219 0.127998-139.997462l-1.69597-1.69597c-13.887748-14.527737-13.599754-28.543483-4.479918-43.519211 2.495955-4.063926 4.95991-7.039872 6.271886-8.319849a15.99971 15.99971 0 1 0-22.463593-22.783587z" fill="#4FCAC3" p-id="6844"></path><path d="M636.477744 511.99072h-88.958388l-23.999565 95.99826h136.957518z" fill="#FF9DAC" p-id="6845"></path><path d="M288.00406 479.9913h95.99826a15.99971 15.99971 0 1 0 0-31.99942H288.00406a15.99971 15.99971 0 1 0 0 31.99942zM543.99942 543.99014h95.99826a15.99971 15.99971 0 1 0 0-31.99942h-95.99826a15.99971 15.99971 0 1 0 0 31.99942z" fill="#4FCAC3" p-id="6846"></path></svg>